<svg xmlns="http://www.w3.org/2000/svg" width="852.67" height="813.64" viewBox="0 0 852.67 813.64"><defs><style>.cls-1{fill:#1a4900;}.cls-2{fill:#00115a;}</style></defs><g id="Layer_2" data-name="Layer 2"><g id="Layer_1-2" data-name="Layer 1"><path class="cls-1" d="M436.93,421.56s-16.35-65.78,20.65-80.27c0,0-.56-1,32.53-4.28s29.27-56.07,29.27-56.07-74.88-2.35-79.21,55.15l-.14,4.08s11.57-21.35,14.77-21.29,1-10.36,1-10.36,3.12,4.05,3.06,7.24c0,0,15.59-22.87,45.88-19.92,0,0-16,3.7-16.88,6.08,0,0,8.76,1,11.88,5,0,0-15.87-5.08-19.14-1.15,0,0-17.8,12.45-17.89,17.24,0,0,16.81-2.09,24.69,3.65,0,0-27.86-4.51-35.24,5.73s-17.1,18.05-22.47,49.1-3.19,43.06-3.19,43.06S436.83,427.15,436.93,421.56Z"/><path class="cls-1" d="M434.31,350.84s-23-7.61-29.82-28.5c0,0-1.3-16-5.26-17.66s30.3,2.15,34,19.79c0,0,4.61,9.67,4.45,18.45,0,0-9.92-24.94-25-30,0,0,4.41,3.41,5.73,5.36,0,0-7.4-1.4-8.23.18,0,0,12-.57,17.37,10.7,0,0-7.15-1.72-12.78.57,0,0,10,.09,14.09,4.2S434.31,350.84,434.31,350.84Z"/><path class="cls-1" d="M328.87,365.11c-42,2.66-38,134-82.87,136.21l18.33-.8c44.86-2.19,40.91-133.55,82.87-136.21Z"/><path class="cls-1" d="M504.48,356.41c-42,2.66-38,134-82.86,136.21l18.33-.8c44.85-2.19,40.9-133.55,82.86-136.21Z"/><path class="cls-2" d="M650.92,481.48C608.9,482.92,600,351.8,555.17,354l18.32-1c44.86-2.19,53.73,128.93,95.75,127.49Z"/><path class="cls-2" d="M474.84,490.2c-42,1.45-50.89-129.68-95.75-127.49l18.32-1c44.86-2.19,53.73,128.93,95.75,127.49Z"/><path class="cls-2" d="M302.58,498.62c-42,1.44-50.89-129.69-95.75-127.5l18.32-1c44.86-2.19,53.73,128.94,95.75,127.5Z"/><path class="cls-1" d="M423.11,492.71c-42,1.44-50.89-129.68-95.74-127.49l18.32-1c44.85-2.2,53.72,128.93,95.74,127.49Z"/><path class="cls-1" d="M599.19,484c-42,1.44-50.89-129.69-95.74-127.5l18.32-1c44.85-2.19,53.72,128.94,95.74,127.5Z"/><path class="cls-1" d="M250.86,501.13c-42,1.45-50.9-129.68-95.76-127.48l18.32-1c44.86-2.2,53.74,128.93,95.76,127.48Z"/><polygon class="cls-1" points="505.34 410.04 503.06 363.43 505.81 359.45 508.09 406.16 505.34 410.04"/><polygon class="cls-1" points="493.2 420.94 490.93 374.32 493.93 370.33 496.21 417.05 493.2 420.94"/><polygon class="cls-1" points="499.04 415.56 496.76 368.95 499.82 364.95 502.1 411.67 499.04 415.56"/><path class="cls-2" d="M556.21,353.9c-42,2.66-38,134-82.87,136.22l18.33-.8c44.86-2.19,40.91-133.56,82.87-136.22Z"/><polygon class="cls-2" points="507.81 463.49 505.46 415.39 508.2 411.29 510.56 459.49 507.81 463.49"/><polygon class="cls-2" points="495.69 474.71 493.35 426.61 496.34 422.5 498.69 470.7 495.69 474.71"/><polygon class="cls-2" points="501.52 469.17 499.17 421.07 502.22 416.96 504.58 465.16 501.52 469.17"/><polygon class="cls-1" points="325.46 428.15 323.19 381.54 325.93 377.56 328.21 424.27 325.46 428.15"/><polygon class="cls-1" points="313.33 439.05 311.05 392.44 314.05 388.44 316.33 435.16 313.33 439.05"/><polygon class="cls-1" points="319.17 433.67 316.89 387.06 319.94 383.06 322.22 429.78 319.17 433.67"/><path class="cls-2" d="M380.6,362.6c-42,2.66-38,134-82.87,136.22l18.33-.8c44.86-2.19,40.91-133.56,82.87-136.22Z"/><polygon class="cls-2" points="327.94 481.6 325.59 433.5 328.33 429.4 330.68 477.6 327.94 481.6"/><polygon class="cls-2" points="315.82 492.82 313.47 444.73 316.46 440.61 318.82 488.81 315.82 492.82"/><polygon class="cls-2" points="321.65 487.28 319.3 439.19 322.35 435.07 324.7 483.27 321.65 487.28"/><path d="M10.14,515q-.24-3.15-.74-8.23c-.32-3.38-.7-6.71-1.11-10q-.88-7-1.85-13.38t-1.3-9.06q-2.28-18,4.77-28t20-11.61a38.83,38.83,0,0,1,11.46.37A29.47,29.47,0,0,1,53,439.91a32.16,32.16,0,0,1,9.63,10.95q4.08,7.2,5.56,18.8L70,484l-3,.38-1.62-12.8Q64.07,461,59.35,455.89a20.06,20.06,0,0,0-11.52-6.25,48.67,48.67,0,0,0-14.4-.21Q19.3,451.22,13,457.69t-4.57,20q.87,6.84,3.66,8.6t10.53.78l73.81-9.35a22.35,22.35,0,0,0,7.9-2.14,6.2,6.2,0,0,0,3-4.84,46.67,46.67,0,0,0,0-9.68l3-.37q.19,3.9.87,9.87t1.46,12.06q.73,5.81,1.45,10.85t1.41,8.14l-3,.38a30.54,30.54,0,0,0-2.16-7.52,5.39,5.39,0,0,0-4-3,27.06,27.06,0,0,0-8.15.13l-73.81,9.35a27.17,27.17,0,0,0-8,1.93,5.62,5.62,0,0,0-3.13,3.95,25.64,25.64,0,0,0-.14,7.8Z"/><path d="M15.12,309.27l3,.49a18.83,18.83,0,0,0,.24,7.86,6.89,6.89,0,0,0,3.73,4.18,31.3,31.3,0,0,0,8.29,2.26l44.57,7.25a107.63,107.63,0,0,1,17.85,4.27,38.51,38.51,0,0,1,12.55,6.9,27.32,27.32,0,0,1,8.24,12.43,34.7,34.7,0,0,1,1.12,16.91,53.51,53.51,0,0,1-3.9,13.26,26.35,26.35,0,0,1-8.14,10.31,35.49,35.49,0,0,1-9.83,5.31A33.66,33.66,0,0,1,81,402.2a132.36,132.36,0,0,1-16.88-1.83l-46.49-7.56a27.31,27.31,0,0,0-8.21-.42,5.64,5.64,0,0,0-4.12,2.9A25.84,25.84,0,0,0,3,402.73l-3-.48q.66-3.08,1.62-8.09t1.91-10.79q.84-5.17,1.52-10.31t1.09-8.56l3,.48a25.44,25.44,0,0,0-.13,7.8,5.6,5.6,0,0,0,3,4.06,26.83,26.83,0,0,0,7.92,2.2l49,8a109.12,109.12,0,0,0,18.75,1.53q8.67-.1,14.52-4.25t7.55-14.65q1.83-11.25-2.13-18.2a26.36,26.36,0,0,0-12.3-10.82A74.05,74.05,0,0,0,76,335l-46.2-7.52a22.62,22.62,0,0,0-8.64-.11,8.1,8.1,0,0,0-5,3.52,21.59,21.59,0,0,0-2.78,7.76l-3-.49c.38-1.76.86-4.08,1.44-7s1.05-5.58,1.46-8.05.78-5.11,1.09-7.64S15,310.87,15.12,309.27Z"/><path d="M27.93,271.9q1.55-2.75,4-7.24t4.63-8.92q3.16-6.3,5.91-12.14c1.84-3.88,3.16-6.64,4-8.25q8.12-16.23,18.85-20.92t20.67.28a28.91,28.91,0,0,1,7.78,5.91,26.11,26.11,0,0,1,5.79,9.86,33.39,33.39,0,0,1,1.24,14.12q-.81,8.16-6,18.62l-6.44,12.87-2.69-1.34,5.78-11.54q4.76-9.52,4.26-16.06A17.11,17.11,0,0,0,91,236.28a36.75,36.75,0,0,0-10.29-7.42q-10.61-5.3-19-3.19T47.27,240q-3.09,6.18-1.75,9.19t8.31,6.51L120.36,289a27.37,27.37,0,0,0,7.65,2.82,5.42,5.42,0,0,0,4.8-1.54,31.3,31.3,0,0,0,4.53-6.37l2.68,1.34q-1.82,3-4.2,7.54t-4.73,9.29q-2.62,5.24-4.84,9.83c-1.47,3.06-2.59,5.58-3.35,7.54l-2.69-1.34a30.66,30.66,0,0,0,2.39-7.45,5.39,5.39,0,0,0-1.64-4.76,27.29,27.29,0,0,0-6.84-4.43l-66.53-33.3a27.26,27.26,0,0,0-7.71-2.86,5.64,5.64,0,0,0-4.8,1.54,25.45,25.45,0,0,0-4.47,6.41Zm58.29,2.51c2.6-4.74,4.7-8.43,6.32-11.1s2.94-4.81,4-6.47,2.11-3.22,3.19-4.69q6-8.25,11.91-10.23t15.19.31l15.36,3.5a40.21,40.21,0,0,0,9.9,1.51,4.88,4.88,0,0,0,4.66-3.12,6.93,6.93,0,0,0,.44-4.56,27.92,27.92,0,0,0-2-5.1l2.49-1.27a28.71,28.71,0,0,1,3.45,9c.46,2.76-.22,6-2.06,9.63a15.29,15.29,0,0,1-7.31,7.24q-4.83,2.28-14.35-.14l-14.9-3.76a81.15,81.15,0,0,0-11.36-2.25,17.71,17.71,0,0,0-8.79,1q-3.8,1.55-6.48,6.91l-7.25,14.49Z"/><path d="M111.84,138.61l2.31,1.91a25.69,25.69,0,0,0-4.07,6.67,5.62,5.62,0,0,0,.52,5,27.14,27.14,0,0,0,5.71,5.91l57.23,47.54a27.48,27.48,0,0,0,6.81,4.48,5.41,5.41,0,0,0,5-.41,30.5,30.5,0,0,0,5.86-5.18l2.31,1.92q-2.43,2.46-5.8,6.4t-6.72,8q-3.74,4.5-6.94,8.47t-5,6.58L166.79,234a30.91,30.91,0,0,0,4-6.71,5.42,5.42,0,0,0-.52-5,27.33,27.33,0,0,0-5.66-5.87L107.4,168.84a27.08,27.08,0,0,0-6.87-4.52,5.61,5.61,0,0,0-5,.41,25.51,25.51,0,0,0-5.8,5.22L87.4,168q2.13-2.33,5.51-6.15t7.11-8.33q3.35-4,6.54-8.12T111.84,138.61Z"/><path d="M200.47,62.4q3,4.88,6.09,9.23t4.82,6.61c1.47,1.89,2.88,3.64,4.25,5.24s2.57,3,3.63,4.21l-2.73,2.11a94.36,94.36,0,0,0-12.39-11.37q-5.14-3.71-10.36-3.09t-12.68,6.4l-6.41,5,52.2,67.53a27.34,27.34,0,0,0,6.39,6.43,6.57,6.57,0,0,0,6,.5,39.63,39.63,0,0,0,8.42-4.81l1.84,2.38q-3.27,2.15-8.06,5.75t-9.66,7.38q-5.34,4.13-10,7.81t-7.31,6.12l-1.84-2.37a39.78,39.78,0,0,0,6.77-6.94,6.56,6.56,0,0,0,1-5.91,27.07,27.07,0,0,0-4.62-7.81l-52.2-67.53-6.41,5q-7.35,5.68-9.32,10.62t.32,10.84a94.54,94.54,0,0,0,7.88,14.86l-2.73,2.11q-1.23-2.09-3.09-4.62t-4.07-5.39q-1.74-2.25-5.18-6.33c-2.29-2.72-4.76-5.45-7.4-8.22q5.08-3.73,11-8.15t11.89-9l10.8-8.35,10.74-8.3Q184,75.69,189.85,71T200.47,62.4Z"/><path d="M309.49,13.81l1.11,2.78a11.31,11.31,0,0,0-3.93,5.53,46.24,46.24,0,0,0-2.25,11.32l-5.88,67-2.36.95L239.54,54.2c-3.24-2.69-5.65-4.23-7.26-4.61a6.57,6.57,0,0,0-3.94,0l-1.17-2.93c1.89-.64,3.86-1.32,5.89-2s4.21-1.52,6.53-2.45q4.6-1.83,9.8-4T258.93,34l1.17,2.93a22.1,22.1,0,0,0-5.8,3.28,5.46,5.46,0,0,0-2.25,4.46q0,2.57,3.75,5.77l41.58,35.72-.78,1.28,3.77-44.32q.84-9.21-.9-13.37t-5.58-4.47Q290,25,284.14,27.17L283,24.38l8.32-3c2.83-1,5.44-2,7.86-3s4.39-1.81,5.93-2.53S308.14,14.46,309.49,13.81ZM299,83.27l11,27.58a26.92,26.92,0,0,0,3.84,7.19,5.37,5.37,0,0,0,4.61,2,30.49,30.49,0,0,0,7.62-1.75l1.11,2.79c-2.21.67-4.92,1.62-8.15,2.85s-6.46,2.5-9.7,3.8q-5.44,2.17-10.15,4.13c-3.14,1.31-5.64,2.45-7.52,3.41l-1.11-2.78a31.5,31.5,0,0,0,6.73-4,5.4,5.4,0,0,0,1.93-4.66A27.13,27.13,0,0,0,297,116L285.62,87.47l11,5.63Z"/><path d="M386.77,0q3.15.15,8.26.27c3.39.09,6.75.12,10.05.11q7,0,13.5-.21T427.72,0q18.15-.08,27.19,8.14T464,29.4a39.19,39.19,0,0,1-1.75,11.33,29.63,29.63,0,0,1-6.18,11,32,32,0,0,1-12,8.22q-7.63,3.2-19.34,3.23l-14.4.07v-3l12.9-.06q10.65,0,16.26-4.12A20,20,0,0,0,447,45.37a48.44,48.44,0,0,0,2-14.26Q449,16.86,443.29,9.83t-19.3-7q-6.9,0-9,2.58t-2.06,10.36l.31,74.4a22.22,22.22,0,0,0,1.17,8.1,6.17,6.17,0,0,0,4.43,3.58,47.43,47.43,0,0,0,9.61,1.16v3q-3.9-.28-9.9-.33t-12.15,0q-5.85,0-10.95.12c-3.4.07-6.15.2-8.25.41v-3a30.54,30.54,0,0,0,7.72-1.23,5.4,5.4,0,0,0,3.51-3.61,27.61,27.61,0,0,0,.87-8.11L399,15.87a27.28,27.28,0,0,0-.93-8.17,5.63,5.63,0,0,0-3.54-3.58A25.46,25.46,0,0,0,386.79,3Z"/><path d="M501.42,4.43c2,.67,4.61,1.51,7.86,2.54s6.45,2,9.63,2.88q6.78,1.92,13,3.53t8.84,2.35q17.46,4.95,24.08,14.61t3.59,20.35a28.88,28.88,0,0,1-4.34,8.75A26.34,26.34,0,0,1,555.5,67a33.32,33.32,0,0,1-13.64,3.85q-8.16.73-19.42-2.45l-13.85-3.93.82-2.88,12.41,3.51Q532.06,68,538.4,66.27a17.16,17.16,0,0,0,9.81-6.58,36.67,36.67,0,0,0,5.36-11.5q3.23-11.4-.4-19.21T536.4,17.45q-6.64-1.87-9.36,0t-4.84,9.39L501.93,98.42a27.28,27.28,0,0,0-1.34,8,5.43,5.43,0,0,0,2.41,4.43,31,31,0,0,0,7.11,3.26l-.82,2.88q-3.24-1.23-8.2-2.71t-10-2.91q-5.62-1.59-10.55-2.91t-8-1.89l.81-2.89a30.62,30.62,0,0,0,7.76,1,5.38,5.38,0,0,0,4.37-2.5,27.13,27.13,0,0,0,3.08-7.55L508.78,23a27.16,27.16,0,0,0,1.36-8.11,5.62,5.62,0,0,0-2.41-4.43,25.56,25.56,0,0,0-7.13-3.18Zm8.44,57.73q7.71,2.5,12.08,4.13c2.92,1.08,5.29,2,7.11,2.71s3.56,1.47,5.21,2.25q9.21,4.34,12.27,9.79t2.54,15l-.56,15.74a40.41,40.41,0,0,0,.36,10,4.91,4.91,0,0,0,3.93,4,6.92,6.92,0,0,0,4.57-.42,28.47,28.47,0,0,0,4.64-2.9l1.71,2.2a28.6,28.6,0,0,1-8.22,5.08q-3.91,1.46-9.84-.21a15.36,15.36,0,0,1-8.48-5.84q-3.13-4.31-2.55-14.12l.92-15.34a82.22,82.22,0,0,0,.08-11.59A17.78,17.78,0,0,0,533,74.18q-2.24-3.44-8-5.07L509.45,64.7Z"/><path d="M664.32,70.35q11.82,8,17.11,19.31a43.19,43.19,0,0,1,3.46,24.66q-1.83,13.34-11.47,27.63-9.39,13.94-21.47,21a47.34,47.34,0,0,1-25,6.87,44.29,44.29,0,0,1-24.47-8q-11.82-8-17.1-19.3A43.12,43.12,0,0,1,582,117.8q1.88-13.39,11.43-27.57,9.38-13.94,21.52-21a48.25,48.25,0,0,1,25-6.87A44,44,0,0,1,664.32,70.35Zm-2,1.91a24,24,0,0,0-17.83-3.88q-9.75,1.58-19.66,9.19T606.19,98.11q-8.88,13.19-11.79,25.43t-.19,21.75a25.32,25.32,0,0,0,10.31,14.63,23.94,23.94,0,0,0,17.83,3.88q9.74-1.58,19.7-9.25a86.34,86.34,0,0,0,18.59-20.48q9-13.3,11.84-25.49t.21-21.65A25.3,25.3,0,0,0,662.32,72.26Z"/><path d="M785.16,194q-4.85,3.07-9.16,6.21c-2.87,2.08-5.06,3.72-6.55,4.9-1.88,1.49-3.61,2.92-5.19,4.31s-3,2.61-4.17,3.68L758,210.35a93.84,93.84,0,0,0,11.22-12.52q3.65-5.19,3-10.39t-6.55-12.61l-5-6.35-66.9,53a27.47,27.47,0,0,0-6.35,6.47,6.53,6.53,0,0,0-.43,6,39.39,39.39,0,0,0,4.91,8.36l-2.36,1.86q-2.19-3.24-5.85-8c-2.45-3.17-4.94-6.35-7.49-9.57q-4.19-5.29-7.93-9.89T662,209.48l2.36-1.86a39.27,39.27,0,0,0,7,6.68,6.55,6.55,0,0,0,5.92,1,27.51,27.51,0,0,0,7.75-4.71l66.9-53-5-6.35q-5.79-7.29-10.74-9.2a14.42,14.42,0,0,0-10.83.45,93.48,93.48,0,0,0-14.76,8.06l-2.15-2.7q2.07-1.26,4.59-3.16t5.33-4.13q2.24-1.77,6.27-5.25t8.13-7.5q3.79,5,8.29,11t9.15,11.79l8.48,10.7,8.43,10.64q4.61,5.82,9.38,11.6T785.16,194Z"/><path d="M832.34,296.17q-5.08,1.44-9.75,3.1c-3.11,1.11-5.46,2-7,2.63s-3.24,1.38-4.73,2.1-2.73,1.33-3.7,1.84l-1.31-3.19a72,72,0,0,0,12-7.67,12.07,12.07,0,0,0,4.67-8q.51-4.5-2.5-11.86l-4.71-11.53a27.52,27.52,0,0,0-3.69-6.83,5.21,5.21,0,0,0-4.53-2,27.24,27.24,0,0,0-7.91,2.26L730.3,285.25a27.71,27.71,0,0,0-7.15,3.9,5.21,5.21,0,0,0-1.93,4.6,27.16,27.16,0,0,0,2.16,7.47l4.15,10.13q3.59,8.75,7.79,12.29A14.84,14.84,0,0,0,745.69,327a65.31,65.31,0,0,0,15.73-2.95l1.31,3.19a102.37,102.37,0,0,0-10.17,3.68q-2.64,1.08-7.48,3.3t-9.89,4.94Q732.57,332,729,323.06t-6.41-15.85q-1.7-4.17-4.51-11T712,281.56q-3.25-7.76-6.32-14.44l2.78-1.13a30.78,30.78,0,0,0,4,6.69,5.41,5.41,0,0,0,4.66,1.9,27.19,27.19,0,0,0,7.84-2.24l68.86-28.18a27.4,27.4,0,0,0,7.22-3.92,5.65,5.65,0,0,0,2-4.63,25.43,25.43,0,0,0-1.89-7.58L804,226.9q2.64,6.85,5.69,14.69t5.85,14.7q2.82,6.87,4.52,11,2.61,6.38,6,14.48T832.34,296.17Zm-37.28-7.92c-5.42,1.79-9.52,3.27-12.27,4.46s-5.3,2.24-7.61,3.19-4.84,2-7.58,3.26-6.67,3.11-11.79,5.64l-1.31-3.19q4.21-2.37,8.14-4.87a14.39,14.39,0,0,0,5.58-6.17q1.65-3.69-.85-9.79l2.78-1.13q2.49,6.11,6.68,7.23a18,18,0,0,0,8.78.05c3.06-.71,5.77-1.34,8.15-1.87Zm-20,3.47-2.78,1.14-10.39-25.41,2.77-1.13Z"/><path d="M847.62,371.45l-3,.5a25.32,25.32,0,0,0-2.41-7.42,5.57,5.57,0,0,0-4.14-2.87,27.11,27.11,0,0,0-8.21.48l-73.34,12.48a27.37,27.37,0,0,0-7.84,2.25,5.41,5.41,0,0,0-3,4.08,30.89,30.89,0,0,0,.12,7.81l-3,.51c-.19-2.31-.55-5.16-1.08-8.57s-1.09-6.84-1.67-10.29q-1-5.76-1.91-10.78c-.63-3.35-1.21-6-1.76-8.07l3-.5a30.88,30.88,0,0,0,2.48,7.41,5.4,5.4,0,0,0,4.14,2.87,27.44,27.44,0,0,0,8.14-.47l73.34-12.48a27.37,27.37,0,0,0,7.91-2.26,5.66,5.66,0,0,0,3-4.08,25.84,25.84,0,0,0-.19-7.8l3-.51q.38,3.13,1.08,8.19T844,352.75q.88,5.17,1.9,10.25T847.62,371.45Z"/><path d="M846,501.54l-3-.22a18.68,18.68,0,0,0-.95-7.81,6.9,6.9,0,0,0-4.09-3.82,31.29,31.29,0,0,0-8.47-1.5l-89.32-6.33c0-.6.08-1.18.12-1.73s.08-1.12.12-1.72l101.56-56-79-5.6a29,29,0,0,0-8.52.38,6.78,6.78,0,0,0-4.62,3.58,26.84,26.84,0,0,0-2.19,8.64l-3-.21q.5-2.67.87-7t.66-8.22q.27-3.74.46-7.56t.08-6.39l3,.22a21.28,21.28,0,0,0,1,7.81,6.68,6.68,0,0,0,4.09,3.83,31.44,31.44,0,0,0,8.4,1.49L836,418.57a27.42,27.42,0,0,0,8.22-.32A5.64,5.64,0,0,0,848,415a25.67,25.67,0,0,0,1.67-7.63l3,.21q-.33,2.54-.75,6.34c-.28,2.54-.51,5-.68,7.55q-.24,3.29-.3,6.29c0,2-.07,3.8-.08,5.41l-85.14,47,64,4.53a29.06,29.06,0,0,0,8.6-.36,7,7,0,0,0,4.61-3.59c1-1.88,1.74-4.76,2.12-8.64l3,.21q-.35,2.68-.8,7.09c-.31,2.93-.56,5.65-.73,8.14s-.32,5.17-.4,7.72S846,499.93,846,501.54Z"/><path d="M196.63,619.79q6.12,6.13,8,11.77A62.65,62.65,0,0,1,207.36,643a5,5,0,0,0,.93,2.85q1.78,1.78,8.18-3.47l2.17,2.17q-3.73,3.35-8.89,8.31t-13.49,13.26l-2.16-2.17q3.35-4.67,6.14-9.33a23.32,23.32,0,0,0,3.31-9.51,25.79,25.79,0,0,0-1.66-12.66,31.51,31.51,0,0,0-7.17-11.1,22.62,22.62,0,0,0-10.86-6.21,28.6,28.6,0,0,0-13.28.17,49.66,49.66,0,0,0-14.76,6.34A85.7,85.7,0,0,0,140.44,634q-17.22,17.18-19.74,30.62t9,25a22.4,22.4,0,0,0,6.89,4.89,30.44,30.44,0,0,0,5.87,2,8.8,8.8,0,0,0,4.6-.08A10.55,10.55,0,0,0,150.4,694l9.18-9.16a23.67,23.67,0,0,0,5.08-6.57,6.06,6.06,0,0,0-.19-5.36,30.92,30.92,0,0,0-5.22-6.75l1.92-1.91q1.59,1.78,3.81,4.1t4.66,4.86q2.45,2.55,4.51,4.63,3.1,3.11,5.7,5.52t4.38,4l-1.91,1.91c-2.2-2-4-2.77-5.49-2.44s-4,2.27-7.54,5.83l-18.94,18.89-1.88-1.89a20.16,20.16,0,0,0,2.83-4.24c.87-1.68.89-2.93.08-3.75a3.65,3.65,0,0,0-1.42-.84,24,24,0,0,0-3.31-.65,38.67,38.67,0,0,1-10.37-2.83,31,31,0,0,1-9.48-6.74q-14.6-14.62-13.69-31.8T130,625.65q11.19-11.16,23.27-15.3a43,43,0,0,1,23.36-1.74A39.53,39.53,0,0,1,196.63,619.79Z"/><path d="M301.71,693.64,300.4,696a16.42,16.42,0,0,0-6.66-2.16,6.19,6.19,0,0,0-4.64,1.9,28.8,28.8,0,0,0-4.44,6.34l-19.78,35.53a99.83,99.83,0,0,1-9.06,13.82,35.2,35.2,0,0,1-9.65,8.55,24.34,24.34,0,0,1-12.93,3.23,30.33,30.33,0,0,1-14.49-4.12,47.25,47.25,0,0,1-9.9-7.28,23.33,23.33,0,0,1-6.11-10,32.17,32.17,0,0,1-1.43-9.92,30.58,30.58,0,0,1,2.38-10.42,118.34,118.34,0,0,1,6.72-13.73L231,670.69a24.81,24.81,0,0,0,2.89-6.82,5,5,0,0,0-1.16-4.36,22.51,22.51,0,0,0-5.51-4.22l1.32-2.36q2.37,1.47,6.27,3.8t8.44,4.85q4.07,2.26,8.16,4.39t6.82,3.49L257,671.82a22.65,22.65,0,0,0-6.49-2.46,5.08,5.08,0,0,0-4.32,1.31,25,25,0,0,0-4.27,6.05l-21.75,39.07a99.44,99.44,0,0,0-7,15.41,22.69,22.69,0,0,0-.92,13.56q1.67,6.18,9.94,10.79,8.85,4.92,15.89,3.66a23.87,23.87,0,0,0,12.83-7.16,67.82,67.82,0,0,0,10.66-14.63L282,700.59a20.49,20.49,0,0,0,2.75-7.28,7.21,7.21,0,0,0-1.41-5.27,19,19,0,0,0-5.63-4.68L279,681c1.36.85,3.16,2,5.4,3.31s4.34,2.57,6.28,3.65,4,2.2,6.07,3.22S300.43,693,301.71,693.64Z"/><path d="M410.72,718.78l-.54,2.65a22.39,22.39,0,0,0-6.93-.38,5,5,0,0,0-3.72,2.55,24.6,24.6,0,0,0-2.25,7l-13.42,65.66a24.69,24.69,0,0,0-.67,7.3,4.81,4.81,0,0,0,2.42,3.81,26.93,26.93,0,0,0,6.5,2.43l-.54,2.65c-2-.59-4.44-1.21-7.44-1.87s-6-1.3-9.06-1.92q-5.1-1-9.55-1.88c-3-.56-5.38-.94-7.25-1.14l.55-2.64a26.82,26.82,0,0,0,6.94.31,4.82,4.82,0,0,0,3.71-2.55,24.77,24.77,0,0,0,2.25-7L386.59,721l.44.51-49.79,80.56-2.09-.43L319.8,709l-14.28,69.89a26.44,26.44,0,0,0-.68,7.65,6.1,6.1,0,0,0,2.61,4.54,23.51,23.51,0,0,0,7.36,2.95l-.54,2.64q-2.31-.74-6.07-1.58T301,793.59q-3.27-.68-6.61-1.28t-5.62-.81l.54-2.64a18.76,18.76,0,0,0,7,0,6,6,0,0,0,3.85-3.21,28.71,28.71,0,0,0,2.32-7.32L315.66,714a24.94,24.94,0,0,0,.69-7.38,5.07,5.07,0,0,0-2.42-3.8,22.81,22.81,0,0,0-6.52-2.37l.54-2.64q2.19.59,5.49,1.4t6.57,1.47q2.87.6,6,1.09c2.06.33,3.8.59,5.21.79l13.47,85.21-2.43.6,45.69-73.81,3.06.62,3.07.63c3.05.62,6.08,1.2,9.11,1.72S408.7,718.46,410.72,718.78Z"/><path d="M522.61,703.77l.39,2.68a22.23,22.23,0,0,0-6.64,2,5,5,0,0,0-2.63,3.66,24.56,24.56,0,0,0,.28,7.4l9.73,66.3a24.55,24.55,0,0,0,1.85,7.1,4.8,4.8,0,0,0,3.57,2.75,26.89,26.89,0,0,0,6.94.08l.4,2.67q-3.07.18-7.63.78t-9.18,1.28c-3.43.5-6.64,1-9.62,1.48s-5.38.95-7.2,1.4l-.39-2.68a26.81,26.81,0,0,0,6.63-2.06,4.83,4.83,0,0,0,2.63-3.67,25,25,0,0,0-.27-7.33l-10.79-73.52.59.32-19.4,92.7-2.11.31-46-81.87,10.36,70.57a26.51,26.51,0,0,0,2,7.43,6,6,0,0,0,4,3.37,23,23,0,0,0,7.92.27l.39,2.68q-2.42.07-6.25.57c-2.56.33-5,.67-7.26,1s-4.41.67-6.65,1-4.09.75-5.56,1.15l-.39-2.67a18.82,18.82,0,0,0,6.59-2.4,6,6,0,0,0,2.53-4.33,28.73,28.73,0,0,0-.32-7.67l-9.54-65a24.91,24.91,0,0,0-1.85-7.17,5.07,5.07,0,0,0-3.57-2.76,22.57,22.57,0,0,0-6.94,0l-.39-2.68c1.5-.12,3.38-.31,5.64-.55s4.48-.52,6.68-.84c1.93-.29,3.93-.62,6-1s3.77-.73,5.17-1L484,791.1l-2.08,1.4,17.84-85,3.1-.45,3.1-.46q4.62-.68,9.14-1.48T522.61,703.77Z"/><path d="M563.46,683.53l1,2.5a22.19,22.19,0,0,0-6,3.57,5,5,0,0,0-1.64,4.2,24.62,24.62,0,0,0,2.09,7.1l25.76,61.86a25.24,25.24,0,0,0,3.54,6.43,4.85,4.85,0,0,0,4.14,1.79,27.36,27.36,0,0,0,6.75-1.64l1,2.49q-2.93.93-7.2,2.63t-8.58,3.5q-4.8,2-9,3.81t-6.63,3.13l-1-2.5a27.07,27.07,0,0,0,5.92-3.63,4.81,4.81,0,0,0,1.64-4.2,25,25,0,0,0-2.06-7l-25.76-61.86a25.25,25.25,0,0,0-3.57-6.49,5,5,0,0,0-4.14-1.79,22.73,22.73,0,0,0-6.73,1.7l-1-2.49q2.64-.95,6.87-2.57t9-3.62q4.31-1.78,8.5-3.68T563.46,683.53Z"/><path d="M630.36,641.75q2.22,4.21,4.56,8t3.64,5.7q1.37,2,2.73,3.78c.91,1.18,1.68,2.15,2.31,2.92l-2.53,1.72a66.15,66.15,0,0,0-9-9.17,10.9,10.9,0,0,0-7.86-2.65q-4,.36-9.86,4.34l-9.15,6.22A24.07,24.07,0,0,0,600,667.1a4.62,4.62,0,0,0-.84,4.33,24.59,24.59,0,0,0,3.48,6.54l37.7,55.39a25.12,25.12,0,0,0,4.77,5.58,4.67,4.67,0,0,0,4.38.87,24.27,24.27,0,0,0,6.09-3.25l8-5.48q6.95-4.73,9.23-9.06a13.29,13.29,0,0,0,1-9.72A60.08,60.08,0,0,0,668.21,699l2.53-1.72a93.92,93.92,0,0,0,5.14,8.27c1,1.41,2.4,3.4,4.31,6s4,5.17,6.19,7.8q-5.76,3.6-12.86,8.34t-12.6,8.5l-8.75,6q-5.46,3.71-11.59,8t-11.38,8.15L627.68,756a27.22,27.22,0,0,0,5.06-4.76,4.81,4.81,0,0,0,.77-4.44,25,25,0,0,0-3.44-6.48l-37.71-55.4a25.18,25.18,0,0,0-4.8-5.64,5,5,0,0,0-4.42-.91,22.59,22.59,0,0,0-6.24,3l-1.52-2.23,11.72-7.65q6.24-4.1,11.7-7.8l8.76-6q5.07-3.45,11.48-7.89T630.36,641.75Zm7,51.1,1.52,2.23-20.17,13.73-1.52-2.24Zm-6.84-16.92q3.88,6.68,6.23,10T641,692q1.9,2.79,4.29,6.06t7.17,9.35L650,709.15q-2.87-3.27-5.79-6.27a13,13,0,0,0-6.45-3.78q-3.53-.79-8.37,2.51l-1.52-2.24q4.84-3.3,5-7.18a16.07,16.07,0,0,0-1.63-7.71L628,677.66Z"/><path d="M659.11,609.77q4.42-5,7.9-6.53a36.45,36.45,0,0,1,6.65-2.28c1.18-.38,2.11-.71,2.79-1a4.39,4.39,0,0,0,1.63-1.13q1.42-1.59-2.48-6.14l2-2.29,3.86,3.89q2.24,2.26,6.08,5.77t10.19,9.17l-2,2.29a39.81,39.81,0,0,0-11.14-6.18,24,24,0,0,0-11.92-1.24q-5.88.92-10.85,6.48a16.39,16.39,0,0,0-4.53,11.59,14.85,14.85,0,0,0,5.42,11,16.56,16.56,0,0,0,9.65,4.5,30.92,30.92,0,0,0,11-1.18q5.88-1.62,12.7-3.59a138.6,138.6,0,0,1,14.61-3.5,35.63,35.63,0,0,1,12.68-.12,23.52,23.52,0,0,1,11.37,5.93q6.45,5.76,8.12,12.42a23.8,23.8,0,0,1-.48,13.32,34.43,34.43,0,0,1-7.28,12.44,31.53,31.53,0,0,1-8.66,7.28,48.24,48.24,0,0,1-7.22,3q-3.36.93-4.42,2.13-1.42,1.59,2.48,6.14l-2,2.29q-1.94-2.09-4.77-4.7T703,682.74q-4.6-4.18-11.66-10.48l2-2.29a56.76,56.76,0,0,0,13.29,7.83,25,25,0,0,0,13.48,1.83q6.59-1,12.26-7.37a18.76,18.76,0,0,0,4.76-11.73q.42-6.87-6.64-13.16a18,18,0,0,0-14-4.79,90.26,90.26,0,0,0-18.29,3.87q-7.1,2.07-13.76,3.45a33.27,33.27,0,0,1-12.82.28,24.24,24.24,0,0,1-11.8-6.15q-6-5.31-7.49-11.4a21.27,21.27,0,0,1,.42-12A30.33,30.33,0,0,1,659.11,609.77Z"/></g></g></svg>