<svg xmlns="http://www.w3.org/2000/svg" width="716.49" height="307.14" viewBox="0 0 716.49 307.14"><defs><style>.cls-1{fill:#1a4900;}.cls-2{fill:#00115a;}</style></defs><g id="Layer_2" data-name="Layer 2"><g id="Layer_1-2" data-name="Layer 1"><path class="cls-1" d="M417.11,196s-22.79-91.67,28.77-111.87c0,0-.78-1.36,45.33-6S532,0,532,0,427.65-3.26,421.63,76.87l-.2,5.68S437.55,52.8,442,52.88s1.38-14.44,1.38-14.44,4.35,5.65,4.27,10.1c0,0,21.73-31.87,63.94-27.75,0,0-22.35,5.15-23.53,8.46,0,0,12.22,1.34,16.57,7,0,0-22.13-7.09-26.68-1.61,0,0-24.8,17.35-24.92,24,0,0,23.42-2.9,34.4,5.09,0,0-38.83-6.28-49.11,8S414.48,96.89,407,140.15s-4.45,60-4.45,60S417,203.76,417.11,196Z" transform="translate(-24.36)"/><path class="cls-1" d="M413.46,97.43S381.38,86.82,371.9,57.71c0,0-1.81-22.29-7.33-24.62s42.23,3,47.34,27.59c0,0,6.43,13.47,6.2,25.7,0,0-13.82-34.75-34.84-41.81,0,0,6.14,4.75,8,7.47,0,0-10.31-1.95-11.47.25,0,0,16.71-.8,24.21,14.92,0,0-10-2.41-17.82.78,0,0,13.91.13,19.64,5.86S413.46,97.43,413.46,97.43Z" transform="translate(-24.36)"/><path class="cls-1" d="M266.52,117.31C208,121,213.55,304.08,151,307.14L176.58,306c62.51-3,57-186.12,115.48-189.82Z" transform="translate(-24.36)"/><path class="cls-1" d="M511.24,105.19c-58.47,3.7-53,186.77-115.47,189.82l25.54-1.11c62.51-3,57-186.12,115.48-189.83Z" transform="translate(-24.36)"/><path class="cls-2" d="M715.31,279.48c-58.55,2-70.91-180.72-133.42-177.67l25.53-1.38c62.51-3.05,74.87,179.68,133.43,177.67Z" transform="translate(-24.36)"/><path class="cls-2" d="M469.93,291.64C411.38,293.65,399,110.92,336.51,114L362,112.59c62.51-3,74.87,179.68,133.42,177.67Z" transform="translate(-24.36)"/><path class="cls-2" d="M229.88,303.36c-58.56,2-70.92-180.72-133.43-177.67L122,124.31c62.51-3,74.87,179.68,133.43,177.67Z" transform="translate(-24.36)"/><path class="cls-1" d="M397.85,295.13c-58.56,2-70.92-180.72-133.43-177.67L290,116.08c62.51-3,74.87,179.68,133.43,177.67Z" transform="translate(-24.36)"/><path class="cls-1" d="M643.23,283c-58.56,2-70.92-180.72-133.43-177.66l25.53-1.39c62.52-3,74.87,179.68,133.43,177.67Z" transform="translate(-24.36)"/><path class="cls-1" d="M157.8,306.87c-58.56,2-70.93-180.72-133.44-177.66l25.53-1.38c62.51-3.06,74.88,179.67,133.44,177.66Z" transform="translate(-24.36)"/><polygon class="cls-1" points="488.08 179.93 484.91 114.97 488.74 109.42 491.92 174.52 488.08 179.93"/><polygon class="cls-1" points="471.17 195.11 468 130.15 472.18 124.59 475.36 189.69 471.17 195.11"/><polygon class="cls-1" points="479.31 187.62 476.13 122.66 480.39 117.09 483.57 182.19 479.31 187.62"/><path class="cls-2" d="M583.33,101.7c-58.48,3.7-53,186.77-115.48,189.82l25.54-1.11c62.52-3.05,57-186.12,115.48-189.83Z" transform="translate(-24.36)"/><polygon class="cls-2" points="491.53 254.41 488.26 187.38 492.07 181.67 495.35 248.84 491.53 254.41"/><polygon class="cls-2" points="474.64 270.05 471.37 203.02 475.54 197.29 478.82 264.46 474.64 270.05"/><polygon class="cls-2" points="482.76 262.33 479.49 195.3 483.74 189.57 487.02 256.74 482.76 262.33"/><polygon class="cls-1" points="237.41 205.17 234.24 140.21 238.06 134.66 241.25 199.76 237.41 205.17"/><polygon class="cls-1" points="220.5 220.35 217.33 155.39 221.51 149.83 224.69 214.93 220.5 220.35"/><polygon class="cls-1" points="228.64 212.86 225.46 147.9 229.72 142.33 232.9 207.43 228.64 212.86"/><path class="cls-2" d="M338.6,113.82c-58.47,3.71-53,186.77-115.48,189.83l25.55-1.12c62.51-3,57-186.12,115.48-189.82Z" transform="translate(-24.36)"/><polygon class="cls-2" points="240.86 279.65 237.59 212.62 241.4 206.91 244.68 274.08 240.86 279.65"/><polygon class="cls-2" points="223.97 295.29 220.7 228.26 224.87 222.53 228.15 289.7 223.97 295.29"/><polygon class="cls-2" points="232.09 287.57 228.82 220.54 233.07 214.81 236.35 281.98 232.09 287.57"/></g></g></svg>