<svg xmlns="http://www.w3.org/2000/svg" width="218.27" height="89.95" viewBox="0 0 218.27 89.95"><defs><style>.cls-1{fill:#697f71;}.cls-2{fill:#698da8;}</style></defs><g id="Layer_2" data-name="Layer 2"><g id="Layer_2-2" data-name="Layer 2"><path class="cls-1" d="M119.82,58.89s-5.94-28.41,10.12-34c0,0-.22-.43,14-1.31S157.35.05,157.35.05s-32-2.21-34.77,22.32l-.13,1.75s5.29-9,6.66-8.87.59-4.42.59-4.42A6.36,6.36,0,0,1,130.89,14a21.94,21.94,0,0,1,20-7.79s-6.93,1.33-7.33,2.33c0,0,3.74.55,5,2.34,0,0-6.71-2.43-8.17-.8,0,0-7.82,5-7.93,7.08,0,0,7.22-.62,10.5,2,0,0-11.85-2.37-15.17,1.89s-7.61,7.45-10.4,20.64S115.3,60,115.3,60,119.68,61.28,119.82,58.89Z"/><path class="cls-1" d="M119.83,28.59s-9.72-3.63-12.3-12.67c0,0-.3-6.87-2-7.64s12.93,1.41,14.22,9a20.79,20.79,0,0,1,1.61,8S117.54,14.43,111.17,12a16.22,16.22,0,0,1,2.37,2.39s-3.14-.72-3.52-.05a8.17,8.17,0,0,1,7.26,4.85,10.4,10.4,0,0,0-5.48,0s4.26.2,6,2S119.83,28.59,119.83,28.59Z"/><path class="cls-1" d="M74.49,33c-18,.47-18.42,56.74-37.65,57l7.86,0c19.23-.22,19.65-56.49,37.64-57Z"/><path class="cls-1" d="M149.77,32.1c-18,.47-18.42,56.74-37.65,57L120,89c19.23-.22,19.65-56.49,37.64-57Z"/><path class="cls-2" d="M210.41,88c-18-.06-19.69-56.31-38.92-56.09l7.86-.13c19.23-.21,20.91,56,38.92,56.09Z"/><path class="cls-2" d="M134.93,88.87c-18-.06-19.69-56.3-38.92-56.09l7.86-.13c19.23-.21,20.92,56,38.92,56.09Z"/><path class="cls-2" d="M61.09,89.7c-18,0-19.69-56.3-38.92-56.08L30,33.49C49.26,33.27,51,89.52,69,89.57Z"/><path class="cls-1" d="M112.76,89.11c-18-.06-19.69-56.3-38.92-56.09l7.86-.13c19.23-.21,20.91,56,38.91,56.09Z"/><path class="cls-1" d="M188.24,88.21c-18-.06-19.69-56.3-38.92-56.09l7.86-.13c19.22-.21,20.91,56,38.91,56.09Z"/><path class="cls-1" d="M38.92,90c-18-.06-19.69-56.3-38.92-56.09l7.85-.13c19.23-.21,20.92,56,38.93,56.09Z"/><polygon class="cls-1" points="149.27 55.06 149.05 35.08 150.28 33.42 150.51 53.45 149.27 55.06"/><polygon class="cls-1" points="143.9 59.53 143.68 39.55 145.03 37.89 145.25 57.91 143.9 59.53"/><polygon class="cls-1" points="146.49 57.32 146.26 37.34 147.63 35.68 147.86 55.71 146.49 57.32"/><path class="cls-2" d="M171.94,31.86c-18,.47-18.42,56.74-37.65,57l7.86,0c19.23-.21,19.65-56.48,37.64-56.95Z"/><polygon class="cls-2" points="149.47 77.97 149.24 57.35 150.48 55.64 150.71 76.31 149.47 77.97"/><polygon class="cls-2" points="144.1 82.58 143.87 61.96 145.22 60.25 145.45 80.91 144.1 82.58"/><polygon class="cls-2" points="146.69 80.3 146.46 59.69 147.83 57.97 148.06 78.64 146.69 80.3"/><polygon class="cls-1" points="72.02 59.92 71.79 39.94 73.03 38.28 73.26 58.31 72.02 59.92"/><polygon class="cls-1" points="66.65 64.39 66.42 44.41 67.77 42.75 68 62.77 66.65 64.39"/><polygon class="cls-1" points="69.23 62.18 69.01 42.2 70.38 40.54 70.61 60.56 69.23 62.18"/><path class="cls-2" d="M96.66,32.76c-18,.47-18.42,56.74-37.64,57l7.85,0c19.23-.22,19.65-56.49,37.65-57Z"/><polygon class="cls-2" points="72.22 82.83 71.98 62.21 73.22 60.5 73.45 81.16 72.22 82.83"/><polygon class="cls-2" points="66.85 87.44 66.62 66.82 67.97 65.11 68.2 85.77 66.85 87.44"/><polygon class="cls-2" points="69.43 85.16 69.2 64.54 70.57 62.83 70.8 83.49 69.43 85.16"/></g></g></svg>