<svg xmlns="http://www.w3.org/2000/svg" width="563.74" height="301.54" viewBox="0 0 563.74 301.54"><defs><style>.cls-1{fill:#1a4900;}.cls-2{fill:#cce59b;}</style></defs><g id="Layer_2" data-name="Layer 2"><g id="Layer_1-2" data-name="Layer 1"><path class="cls-1" d="M334,194.3s-16.92-92,24-111.42c0,0-.6-1.39,35.84-5.3S427,.06,427,.06s-82.32-4.82-88,75.21L338.72,81s13.08-29.51,16.59-29.36,1.26-14.42,1.26-14.42,3.36,5.71,3.24,10.16c0,0,17.53-31.55,50.79-26.81,0,0-17.7,4.82-18.66,8.12,0,0,9.62,1.52,13,7.23,0,0-17.38-7.41-21-2,0,0-19.77,17-19.95,23.65,0,0,18.52-2.56,27.09,5.59,0,0-30.57-6.85-38.85,7.27s-19.1,24.81-25.5,68-4.21,59.94-4.21,59.94S333.8,202.09,334,194.3Z" transform="translate(-24.81)"/><path class="cls-1" d="M332.26,95.71s-25.19-11.08-32.33-40.32c0,0-1.17-22.32-5.5-24.73s33.29,3.63,37,28.28c0,0,4.91,13.56,4.59,25.8,0,0-10.5-35-27-42.33,0,0,4.79,4.84,6.21,7.59,0,0-8.12-2.1-9,.08,0,0,13.19-.55,18.93,15.27,0,0-7.84-2.55-14.07.52,0,0,11,.34,15.43,6.16S332.26,95.71,332.26,95.71Z" transform="translate(-24.81)"/><path class="cls-2" d="M568.38,282.19c-46.24,1.15-53.87-181.75-103.24-179.62l20.17-1c49.37-2.13,57,180.76,103.24,179.61Z" transform="translate(-24.81)"/><path class="cls-2" d="M374.58,290.73C328.34,291.88,320.71,109,271.34,111.12l20.16-1c49.38-2.13,57,180.76,103.25,179.62Z" transform="translate(-24.81)"/><path class="cls-2" d="M185,298.92c-46.24,1.15-53.87-181.74-103.25-179.61l20.17-1c49.37-2.14,57,180.76,103.24,179.61Z" transform="translate(-24.81)"/><path class="cls-1" d="M216.06,113.43c-46.19,2.84-44,186-93.34,188.11l20.17-.74c49.37-2.14,47.15-185.26,93.35-188.11Z" transform="translate(-24.81)"/><path class="cls-1" d="M409.35,104.91c-46.19,2.84-44,186-93.34,188.1l20.17-.73c49.37-2.14,47.15-185.27,93.34-188.11Z" transform="translate(-24.81)"/><path class="cls-1" d="M317.65,293.16c-46.24,1.15-53.87-181.75-103.24-179.61l20.16-1c49.37-2.13,57,180.76,103.24,179.62Z" transform="translate(-24.81)"/><path class="cls-1" d="M511.45,284.62C465.21,285.76,457.58,102.87,408.21,105l20.16-1c49.38-2.13,57,180.76,103.25,179.61Z" transform="translate(-24.81)"/><path class="cls-1" d="M128.06,301.37C81.82,302.52,74.18,119.63,24.81,121.76l20.16-1c49.37-2.14,57,180.75,103.25,179.6Z" transform="translate(-24.81)"/><polygon class="cls-1" points="384.62 179.66 382.87 114.66 385.95 109.17 387.7 174.31 384.62 179.66"/><polygon class="cls-1" points="371.1 194.59 369.35 129.59 372.71 124.09 374.46 189.23 371.1 194.59"/><polygon class="cls-1" points="377.6 187.22 375.85 122.22 379.27 116.72 381.03 181.85 377.6 187.22"/><path class="cls-2" d="M466.28,102.48c-46.19,2.84-44,186-93.34,188.1l20.17-.73c49.37-2.14,47.15-185.27,93.34-188.11Z" transform="translate(-24.81)"/><polygon class="cls-2" points="386.47 254.18 384.67 187.11 387.75 181.45 389.56 248.67 386.47 254.18"/><polygon class="cls-2" points="372.96 269.57 371.16 202.5 374.52 196.83 376.33 264.05 372.96 269.57"/><polygon class="cls-2" points="379.46 261.97 377.66 194.9 381.08 189.23 382.88 256.44 379.46 261.97"/><polygon class="cls-1" points="186.49 201.2 184.74 136.21 187.82 130.72 189.58 195.86 186.49 201.2"/><polygon class="cls-1" points="172.97 216.14 171.22 151.14 174.58 145.64 176.33 210.78 172.97 216.14"/><polygon class="cls-1" points="179.47 208.76 177.72 143.77 181.15 138.26 182.9 203.4 179.47 208.76"/><path class="cls-2" d="M273,111c-46.19,2.84-44,186-93.34,188.11l20.17-.74c49.38-2.14,47.15-185.26,93.35-188.11Z" transform="translate(-24.81)"/><polygon class="cls-2" points="188.35 275.73 186.54 208.66 189.62 203 191.43 270.22 188.35 275.73"/><polygon class="cls-2" points="174.83 291.12 173.03 224.05 176.39 218.38 178.2 285.6 174.83 291.12"/><polygon class="cls-2" points="181.33 283.52 179.53 216.45 182.95 210.78 184.76 277.99 181.33 283.52"/></g></g></svg>